<svg width="31" height="27" viewBox="0 0 31 27" fill="none" xmlns="http://www.w3.org/2000/svg">
<path d="M28.1787 10.3872V13.7516C28.1766 15.6193 27.4337 17.4099 26.113 18.7306C24.7924 20.0513 23.0018 20.7942 21.134 20.7963H3.93916L6.74987 17.9855L5.32671 16.5624L2.51595 19.3731L2.23825 19.6507L0.126984 21.762L4.78289 27L6.28731 25.6628L3.75065 22.8091H21.134C26.1282 22.8091 30.1915 18.7458 30.1915 13.7516V8.37444L28.1787 10.3872Z" fill="#69AB5E" fill-opacity="0.88"/>
<path d="M2.01277 13.2484C2.01488 11.3807 2.75776 9.59007 4.07844 8.2694C5.39912 6.94872 7.18973 6.20584 9.05745 6.20372H26.2523L23.4416 9.01449L24.8648 10.4376L27.6755 7.62694L27.9345 7.36805L30.0645 5.23797L25.4086 0L23.9042 1.33723L26.4408 4.19096H9.05745C4.06327 4.19096 0 8.25423 0 13.2484V18.6443L2.01277 16.6315V13.2484Z" fill="#69AB5E" fill-opacity="0.88"/>
</svg>
